<?xml version="1.0" encoding="UTF-8"?>

<!DOCTYPE svg PUBLIC '-//W3C//DTD SVG 1.0//EN' 'http://www.w3.org/TR/2001/REC-SVG-20010904/DTD/svg10.dtd'>
<svg color-interpolation="auto" color-rendering="auto" fill="black" fill-opacity="1" font-family="&apos;Dialog&apos;" font-size="12" font-style="normal" font-weight="normal" image-rendering="auto" shape-rendering="auto" stroke="black" stroke-dasharray="none" stroke-dashoffset="0" stroke-linecap="square" stroke-linejoin="miter" stroke-miterlimit="10" stroke-opacity="1" stroke-width="1" text-rendering="auto" xmlns="http://www.w3.org/2000/svg" xmlns:xlink="http://www.w3.org/1999/xlink">
  <!--Generated by the Batik Graphics2D SVG Generator-->
  <defs id="genericDefs" />
  <g>
    <defs id="defs1">
      <clipPath clipPathUnits="userSpaceOnUse" id="clipPath1">
        <path d="M30 10 L30 281 L510 281 L510 10 Z" />
      </clipPath>
      <clipPath clipPathUnits="userSpaceOnUse" id="clipPath2">
        <path d="M-10 -10 L-10 261 L470 261 L470 -10 Z" />
      </clipPath>
      <clipPath clipPathUnits="userSpaceOnUse" id="clipPath3">
        <path d="M-36.879600524902344 -10 L-36.879600524902344 261 L443.1203918457031 261 L443.1203918457031 -10 Z" />
      </clipPath>
      <clipPath clipPathUnits="userSpaceOnUse" id="clipPath4">
        <path d="M-42.879600524902344 -16 L-42.879600524902344 255 L437.1203918457031 255 L437.1203918457031 -16 Z" />
      </clipPath>
      <clipPath clipPathUnits="userSpaceOnUse" id="clipPath5">
        <path d="M-160 -10 L-160 261 L320 261 L320 -10 Z" />
      </clipPath>
      <clipPath clipPathUnits="userSpaceOnUse" id="clipPath6">
        <path d="M-181.68850708007812 -10 L-181.68850708007812 261 L298.3114929199219 261 L298.3114929199219 -10 Z" />
      </clipPath>
      <clipPath clipPathUnits="userSpaceOnUse" id="clipPath7">
        <path d="M-187.68850708007812 -16 L-187.68850708007812 255 L292.3114929199219 255 L292.3114929199219 -16 Z" />
      </clipPath>
      <clipPath clipPathUnits="userSpaceOnUse" id="clipPath8">
        <path d="M-205 -107 L-205 164 L275 164 L275 -107 Z" />
      </clipPath>
      <clipPath clipPathUnits="userSpaceOnUse" id="clipPath9">
        <path d="M-370 -10 L-370 261 L110 261 L110 -10 Z" />
      </clipPath>
      <clipPath clipPathUnits="userSpaceOnUse" id="clipPath10">
        <path d="M-371.50390625 -10 L-371.50390625 261 L108.49610137939453 261 L108.49610137939453 -10 Z" />
      </clipPath>
      <clipPath clipPathUnits="userSpaceOnUse" id="clipPath11">
        <path d="M-377.50390625 -16 L-377.50390625 255 L102.49610137939453 255 L102.49610137939453 -16 Z" />
      </clipPath>
      <clipPath clipPathUnits="userSpaceOnUse" id="clipPath12">
        <path d="M-415 -72 L-415 199 L65 199 L65 -72 Z" />
      </clipPath>
      <clipPath clipPathUnits="userSpaceOnUse" id="clipPath13">
        <path d="M-181.38890075683594 -47 L-181.38890075683594 224 L298.6111145019531 224 L298.6111145019531 -47 Z" />
      </clipPath>
      <clipPath clipPathUnits="userSpaceOnUse" id="clipPath14">
        <path d="M-186.44509887695312 -47 L-186.44509887695312 224 L293.5549011230469 224 L293.5549011230469 -47 Z" />
      </clipPath>
      <clipPath clipPathUnits="userSpaceOnUse" id="clipPath15">
        <path d="M-191.50120544433594 -47 L-191.50120544433594 224 L288.4988098144531 224 L288.4988098144531 -47 Z" />
      </clipPath>
      <clipPath clipPathUnits="userSpaceOnUse" id="clipPath16">
        <path d="M415 72 L415 -199 L-65 -199 L-65 72 Z" />
      </clipPath>
      <clipPath clipPathUnits="userSpaceOnUse" id="clipPath17">
        <path d="M-48.886199951171875 -82 L-48.886199951171875 189 L431.1138000488281 189 L431.1138000488281 -82 Z" />
      </clipPath>
      <clipPath clipPathUnits="userSpaceOnUse" id="clipPath18">
        <path d="M-53.94240188598633 -82 L-53.94240188598633 189 L426.0575866699219 189 L426.0575866699219 -82 Z" />
      </clipPath>
      <clipPath clipPathUnits="userSpaceOnUse" id="clipPath19">
        <path d="M-58.99850082397461 -82 L-58.99850082397461 189 L421.0014953613281 189 L421.0014953613281 -82 Z" />
      </clipPath>
      <clipPath clipPathUnits="userSpaceOnUse" id="clipPath20">
        <path d="M205 107 L205 -164 L-275 -164 L-275 107 Z" />
      </clipPath>
      <clipPath clipPathUnits="userSpaceOnUse" id="clipPath21">
        <path d="M-278.7673034667969 -117 L-278.7673034667969 154 L201.23269653320312 154 L201.23269653320312 -117 Z" />
      </clipPath>
      <clipPath clipPathUnits="userSpaceOnUse" id="clipPath22">
        <path d="M-283.823486328125 -117 L-283.823486328125 154 L196.17649841308594 154 L196.17649841308594 -117 Z" />
      </clipPath>
      <clipPath clipPathUnits="userSpaceOnUse" id="clipPath23">
        <path d="M-288.8796081542969 -117 L-288.8796081542969 154 L191.1204071044922 154 L191.1204071044922 -117 Z" />
      </clipPath>
      <clipPath clipPathUnits="userSpaceOnUse" id="clipPath24">
        <path d="M415 142 L415 -129 L-65 -129 L-65 142 Z" />
      </clipPath>
      <clipPath clipPathUnits="userSpaceOnUse" id="clipPath25">
        <path d="M-276.2673034667969 -152 L-276.2673034667969 119 L203.73269653320312 119 L203.73269653320312 -152 Z" />
      </clipPath>
      <clipPath clipPathUnits="userSpaceOnUse" id="clipPath26">
        <path d="M-281.323486328125 -152 L-281.323486328125 119 L198.67649841308594 119 L198.67649841308594 -152 Z" />
      </clipPath>
      <clipPath clipPathUnits="userSpaceOnUse" id="clipPath27">
        <path d="M-286.3796081542969 -152 L-286.3796081542969 119 L193.6204071044922 119 L193.6204071044922 -152 Z" />
      </clipPath>
      <clipPath clipPathUnits="userSpaceOnUse" id="clipPath28">
        <path d="M415 177 L415 -94 L-65 -94 L-65 177 Z" />
      </clipPath>
      <clipPath clipPathUnits="userSpaceOnUse" id="clipPath29">
        <path d="M-275.96380615234375 -187 L-275.96380615234375 84 L204.03619384765625 84 L204.03619384765625 -187 Z" />
      </clipPath>
      <clipPath clipPathUnits="userSpaceOnUse" id="clipPath30">
        <path d="M-281.0199890136719 -187 L-281.0199890136719 84 L198.97999572753906 84 L198.97999572753906 -187 Z" />
      </clipPath>
      <clipPath clipPathUnits="userSpaceOnUse" id="clipPath31">
        <path d="M-286.07611083984375 -187 L-286.07611083984375 84 L193.9239044189453 84 L193.9239044189453 -187 Z" />
      </clipPath>
      <clipPath clipPathUnits="userSpaceOnUse" id="clipPath32">
        <path d="M415 212 L415 -59 L-65 -59 L-65 212 Z" />
      </clipPath>
      <clipPath clipPathUnits="userSpaceOnUse" id="clipPath33">
        <path d="M415 247 L415 -24 L-65 -24 L-65 247 Z" />
      </clipPath>
      <clipPath clipPathUnits="userSpaceOnUse" id="clipPath34">
        <path d="M-202.798095703125 -222 L-202.798095703125 49 L277.201904296875 49 L277.201904296875 -222 Z" />
      </clipPath>
      <clipPath clipPathUnits="userSpaceOnUse" id="clipPath35">
        <path d="M-207.8542938232422 -222 L-207.8542938232422 49 L272.14569091796875 49 L272.14569091796875 -222 Z" />
      </clipPath>
      <clipPath clipPathUnits="userSpaceOnUse" id="clipPath36">
        <path d="M-212.910400390625 -222 L-212.910400390625 49 L267.089599609375 49 L267.089599609375 -222 Z" />
      </clipPath>
    </defs>
    <g color-interpolation="linearRGB" color-rendering="optimizeQuality" fill="white" image-rendering="optimizeQuality" shape-rendering="crispEdges" stroke="white" text-rendering="geometricPrecision" transform="matrix(1,0,0,1,-30,-10)">
      <rect clip-path="url(#clipPath1)" height="271" stroke="none" width="480" x="30" y="10" />
    </g>
    <g color-interpolation="linearRGB" color-rendering="optimizeQuality" fill="rgb(255,255,128)" fill-opacity="0.800000011920929" image-rendering="optimizeQuality" shape-rendering="crispEdges" stroke="rgb(255,255,128)" stroke-opacity="0.800000011920929" text-rendering="geometricPrecision" transform="matrix(1,0,0,1,10,10)">
      <path clip-path="url(#clipPath2)" d="M50.5 0.5 L50.5 238.5" stroke="none" />
    </g>
    <g color-interpolation="linearRGB" color-rendering="optimizeQuality" image-rendering="optimizeQuality" shape-rendering="crispEdges" stroke-dasharray="5,5" stroke-linecap="butt" stroke-miterlimit="1" text-rendering="geometricPrecision" transform="matrix(1,0,0,1,10,10)">
      <path clip-path="url(#clipPath2)" d="M50.5 0.5 L50.5 238.5" fill="none" />
    </g>
    <g color-interpolation="linearRGB" color-rendering="optimizeQuality" fill="rgb(255,255,128)" fill-opacity="0.800000011920929" image-rendering="optimizeQuality" shape-rendering="crispEdges" stroke="rgb(255,255,128)" stroke-opacity="0.800000011920929" text-rendering="geometricPrecision" transform="matrix(1,0,0,1,36.879599999999996,10)">
      <path clip-path="url(#clipPath3)" d="M0.5 0.5 L45.740699768066406 0.5 L45.740699768066406 26.5 L0.5 26.5 Z" stroke="none" />
    </g>
    <g color-interpolation="linearRGB" color-rendering="optimizeQuality" image-rendering="optimizeQuality" shape-rendering="crispEdges" stroke-linecap="butt" stroke-miterlimit="1" text-rendering="geometricPrecision" transform="matrix(1,0,0,1,36.879599999999996,10)">
      <path clip-path="url(#clipPath3)" d="M0.5 0.5 L45.740699768066406 0.5 L45.740699768066406 26.5 L0.5 26.5 Z" fill="none" />
    </g>
    <g color-interpolation="linearRGB" color-rendering="optimizeQuality" font-family="sans-serif" font-size="11" image-rendering="optimizeQuality" shape-rendering="crispEdges" text-rendering="geometricPrecision" transform="matrix(1,0,0,1,42.879599999999996,16)">
      <text clip-path="url(#clipPath4)" stroke="none" x="0" xml:space="preserve" y="12">aClient</text>
      <line clip-path="url(#clipPath4)" fill="none" x1="0" x2="34.24072265625" y1="13.5" y2="13.5" />
    </g>
    <g color-interpolation="linearRGB" color-rendering="optimizeQuality" fill="rgb(255,255,128)" fill-opacity="0.8078431487083435" font-family="sans-serif" font-size="11" image-rendering="optimizeQuality" shape-rendering="crispEdges" stroke="rgb(255,255,128)" stroke-opacity="0.8078431487083435" text-rendering="geometricPrecision" transform="matrix(1,0,0,1,160,10)">
      <path clip-path="url(#clipPath5)" d="M50.5 0.5 L50.5 240.5" stroke="none" />
    </g>
    <g color-interpolation="linearRGB" color-rendering="optimizeQuality" font-family="sans-serif" font-size="11" image-rendering="optimizeQuality" shape-rendering="crispEdges" stroke-dasharray="5,5" stroke-linecap="butt" stroke-miterlimit="1" text-rendering="geometricPrecision" transform="matrix(1,0,0,1,160,10)">
      <path clip-path="url(#clipPath5)" d="M50.5 0.5 L50.5 240.5" fill="none" />
    </g>
    <g color-interpolation="linearRGB" color-rendering="optimizeQuality" fill="rgb(255,255,128)" fill-opacity="0.8078431487083435" font-family="sans-serif" font-size="11" image-rendering="optimizeQuality" shape-rendering="crispEdges" stroke="rgb(255,255,128)" stroke-opacity="0.8078431487083435" text-rendering="geometricPrecision" transform="matrix(1,0,0,1,181.6885,10)">
      <path clip-path="url(#clipPath6)" d="M0.5 0.5 L56.12300109863281 0.5 L56.12300109863281 26.5 L0.5 26.5 Z" stroke="none" />
    </g>
    <g color-interpolation="linearRGB" color-rendering="optimizeQuality" font-family="sans-serif" font-size="11" image-rendering="optimizeQuality" shape-rendering="crispEdges" stroke-linecap="butt" stroke-miterlimit="1" text-rendering="geometricPrecision" transform="matrix(1,0,0,1,181.6885,10)">
      <path clip-path="url(#clipPath6)" d="M0.5 0.5 L56.12300109863281 0.5 L56.12300109863281 26.5 L0.5 26.5 Z" fill="none" />
      <text clip-path="url(#clipPath7)" stroke="none" stroke-linecap="square" stroke-miterlimit="10" transform="matrix(1,0,0,1,6,6)" x="0" xml:space="preserve" y="12">aDirector</text>
      <line clip-path="url(#clipPath7)" fill="none" stroke-linecap="square" stroke-miterlimit="10" transform="matrix(1,0,0,1,6,6)" x1="0" x2="44.623046875" y1="13.5" y2="13.5" />
    </g>
    <g color-interpolation="linearRGB" color-rendering="optimizeQuality" fill="rgb(255,255,128)" fill-opacity="0.8078431487083435" font-family="sans-serif" font-size="11" image-rendering="optimizeQuality" shape-rendering="crispEdges" stroke="rgb(255,255,128)" stroke-opacity="0.8078431487083435" text-rendering="geometricPrecision" transform="matrix(1,0,0,1,205,107)">
      <path clip-path="url(#clipPath8)" d="M0.5 0.5 L9.5 0.5 L9.5 35.5 L0.5 35.5 Z" stroke="none" />
    </g>
    <g color-interpolation="linearRGB" color-rendering="optimizeQuality" font-family="sans-serif" font-size="11" image-rendering="optimizeQuality" shape-rendering="crispEdges" stroke-linecap="butt" stroke-miterlimit="1" text-rendering="geometricPrecision" transform="matrix(1,0,0,1,205,107)">
      <path clip-path="url(#clipPath8)" d="M0.5 0.5 L9.5 0.5 L9.5 35.5 L0.5 35.5 Z" fill="none" />
    </g>
    <g color-interpolation="linearRGB" color-rendering="optimizeQuality" fill="rgb(255,255,128)" fill-opacity="0.800000011920929" font-family="sans-serif" font-size="11" image-rendering="optimizeQuality" shape-rendering="crispEdges" stroke="rgb(255,255,128)" stroke-opacity="0.800000011920929" text-rendering="geometricPrecision" transform="matrix(1,0,0,1,370,10)">
      <path clip-path="url(#clipPath9)" d="M50.5 0.5 L50.5 250.5" stroke="none" />
    </g>
    <g color-interpolation="linearRGB" color-rendering="optimizeQuality" font-family="sans-serif" font-size="11" image-rendering="optimizeQuality" shape-rendering="crispEdges" stroke-dasharray="5,5" stroke-linecap="butt" stroke-miterlimit="1" text-rendering="geometricPrecision" transform="matrix(1,0,0,1,370,10)">
      <path clip-path="url(#clipPath9)" d="M50.5 0.5 L50.5 250.5" fill="none" />
    </g>
    <g color-interpolation="linearRGB" color-rendering="optimizeQuality" fill="rgb(255,255,128)" fill-opacity="0.800000011920929" font-family="sans-serif" font-size="11" image-rendering="optimizeQuality" shape-rendering="crispEdges" stroke="rgb(255,255,128)" stroke-opacity="0.800000011920929" text-rendering="geometricPrecision" transform="matrix(1,0,0,1,371.5039,10)">
      <path clip-path="url(#clipPath10)" d="M0.5 0.5 L96.49220275878906 0.5 L96.49220275878906 26.5 L0.5 26.5 Z" stroke="none" />
    </g>
    <g color-interpolation="linearRGB" color-rendering="optimizeQuality" font-family="sans-serif" font-size="11" image-rendering="optimizeQuality" shape-rendering="crispEdges" stroke-linecap="butt" stroke-miterlimit="1" text-rendering="geometricPrecision" transform="matrix(1,0,0,1,371.5039,10)">
      <path clip-path="url(#clipPath10)" d="M0.5 0.5 L96.49220275878906 0.5 L96.49220275878906 26.5 L0.5 26.5 Z" fill="none" />
      <text clip-path="url(#clipPath11)" stroke="none" stroke-linecap="square" stroke-miterlimit="10" transform="matrix(1,0,0,1,6,6)" x="0" xml:space="preserve" y="12">aConcreteBuilder</text>
      <line clip-path="url(#clipPath11)" fill="none" stroke-linecap="square" stroke-miterlimit="10" transform="matrix(1,0,0,1,6,6)" x1="0" x2="84.9921875" y1="13.5" y2="13.5" />
    </g>
    <g color-interpolation="linearRGB" color-rendering="optimizeQuality" fill="rgb(255,255,128)" fill-opacity="0.800000011920929" font-family="sans-serif" font-size="11" image-rendering="optimizeQuality" shape-rendering="crispEdges" stroke="rgb(255,255,128)" stroke-opacity="0.800000011920929" text-rendering="geometricPrecision" transform="matrix(1,0,0,1,415,72)">
      <path clip-path="url(#clipPath12)" d="M0.5 0.5 L9.5 0.5 L9.5 188.5 L0.5 188.5 Z" stroke="none" />
    </g>
    <g color-interpolation="linearRGB" color-rendering="optimizeQuality" font-family="sans-serif" font-size="11" image-rendering="optimizeQuality" shape-rendering="crispEdges" stroke-linecap="butt" stroke-miterlimit="1" text-rendering="geometricPrecision" transform="matrix(1,0,0,1,415,72)">
      <path clip-path="url(#clipPath12)" d="M0.5 0.5 L9.5 0.5 L9.5 188.5 L0.5 188.5 Z" fill="none" />
    </g>
    <g color-interpolation="linearRGB" color-rendering="optimizeQuality" font-family="sans-serif" font-size="11" image-rendering="optimizeQuality" shape-rendering="crispEdges" stroke-linecap="butt" stroke-miterlimit="1" text-rendering="geometricPrecision" transform="matrix(1,0,0,1,-30,-10)">
      <path clip-path="url(#clipPath1)" d="M445 82 L90 82" fill="none" />
      <text clip-path="url(#clipPath13)" stroke="none" stroke-linecap="square" stroke-miterlimit="10" transform="matrix(1,0,0,1,211.3889,57)" x="0" xml:space="preserve" y="12"> </text>
    </g>
    <g color-interpolation="linearRGB" color-rendering="optimizeQuality" font-family="sans-serif" font-size="11" image-rendering="optimizeQuality" shape-rendering="crispEdges" text-rendering="geometricPrecision" transform="matrix(1,0,0,1,186.4451,47)">
      <text clip-path="url(#clipPath14)" stroke="none" x="0" xml:space="preserve" y="12">:</text>
    </g>
    <g color-interpolation="linearRGB" color-rendering="optimizeQuality" font-family="sans-serif" font-size="11" image-rendering="optimizeQuality" shape-rendering="crispEdges" text-rendering="geometricPrecision" transform="matrix(1,0,0,1,191.5012,47)">
      <text clip-path="url(#clipPath15)" stroke="none" x="0" xml:space="preserve" y="12">new ConcreteBuilder</text>
    </g>
    <g color-interpolation="linearRGB" color-rendering="optimizeQuality" font-family="sans-serif" font-size="11" image-rendering="optimizeQuality" shape-rendering="crispEdges" text-rendering="geometricPrecision" transform="matrix(-1,0,0,-1,415,72)">
      <path clip-path="url(#clipPath16)" d="M12 -6 L0 0 L12 6 Z" stroke="none" />
      <path clip-path="url(#clipPath16)" d="M12 -6 L0 0 L12 6 Z" fill="none" />
    </g>
    <g color-interpolation="linearRGB" color-rendering="optimizeQuality" font-family="sans-serif" font-size="11" image-rendering="optimizeQuality" shape-rendering="crispEdges" stroke-linecap="butt" stroke-miterlimit="1" text-rendering="geometricPrecision" transform="matrix(1,0,0,1,-30,-10)">
      <path clip-path="url(#clipPath1)" d="M235 117 L90 117" fill="none" />
      <text clip-path="url(#clipPath17)" stroke="none" stroke-linecap="square" stroke-miterlimit="10" transform="matrix(1,0,0,1,78.8862,92)" x="0" xml:space="preserve" y="12"> </text>
    </g>
    <g color-interpolation="linearRGB" color-rendering="optimizeQuality" font-family="sans-serif" font-size="11" image-rendering="optimizeQuality" shape-rendering="crispEdges" text-rendering="geometricPrecision" transform="matrix(1,0,0,1,53.9424,82)">
      <text clip-path="url(#clipPath18)" stroke="none" x="0" xml:space="preserve" y="12">:</text>
    </g>
    <g color-interpolation="linearRGB" color-rendering="optimizeQuality" font-family="sans-serif" font-size="11" image-rendering="optimizeQuality" shape-rendering="crispEdges" text-rendering="geometricPrecision" transform="matrix(1,0,0,1,58.9985,82)">
      <text clip-path="url(#clipPath19)" stroke="none" x="0" xml:space="preserve" y="12">new Director (aConcreteBuilder)</text>
    </g>
    <g color-interpolation="linearRGB" color-rendering="optimizeQuality" font-family="sans-serif" font-size="11" image-rendering="optimizeQuality" shape-rendering="crispEdges" text-rendering="geometricPrecision" transform="matrix(-1,0,0,-1,205,107)">
      <path clip-path="url(#clipPath20)" d="M12 -6 L0 0 L12 6 Z" stroke="none" />
      <path clip-path="url(#clipPath20)" d="M12 -6 L0 0 L12 6 Z" fill="none" />
    </g>
    <g color-interpolation="linearRGB" color-rendering="optimizeQuality" font-family="sans-serif" font-size="11" image-rendering="optimizeQuality" shape-rendering="crispEdges" stroke-linecap="butt" stroke-miterlimit="1" text-rendering="geometricPrecision" transform="matrix(1,0,0,1,-30,-10)">
      <path clip-path="url(#clipPath1)" d="M445 152 L245 152" fill="none" />
      <text clip-path="url(#clipPath21)" stroke="none" stroke-linecap="square" stroke-miterlimit="10" transform="matrix(1,0,0,1,308.7673,127)" x="0" xml:space="preserve" y="12"> </text>
    </g>
    <g color-interpolation="linearRGB" color-rendering="optimizeQuality" font-family="sans-serif" font-size="11" image-rendering="optimizeQuality" shape-rendering="crispEdges" text-rendering="geometricPrecision" transform="matrix(1,0,0,1,283.82349999999997,117)">
      <text clip-path="url(#clipPath22)" stroke="none" x="0" xml:space="preserve" y="12">:</text>
    </g>
    <g color-interpolation="linearRGB" color-rendering="optimizeQuality" font-family="sans-serif" font-size="11" image-rendering="optimizeQuality" shape-rendering="crispEdges" text-rendering="geometricPrecision" transform="matrix(1,0,0,1,288.8796,117)">
      <text clip-path="url(#clipPath23)" stroke="none" x="0" xml:space="preserve" y="12">BuildPartA ()</text>
    </g>
    <g color-interpolation="linearRGB" color-rendering="optimizeQuality" font-family="sans-serif" font-size="11" image-rendering="optimizeQuality" shape-rendering="crispEdges" text-rendering="geometricPrecision" transform="matrix(-1,0,0,-1,415,142)">
      <path clip-path="url(#clipPath24)" d="M12 -6 L0 0 L12 6 Z" stroke="none" />
      <path clip-path="url(#clipPath24)" d="M12 -6 L0 0 L12 6 Z" fill="none" />
    </g>
    <g color-interpolation="linearRGB" color-rendering="optimizeQuality" font-family="sans-serif" font-size="11" image-rendering="optimizeQuality" shape-rendering="crispEdges" stroke-linecap="butt" stroke-miterlimit="1" text-rendering="geometricPrecision" transform="matrix(1,0,0,1,-30,-10)">
      <path clip-path="url(#clipPath1)" d="M445 187 L240 187" fill="none" />
      <text clip-path="url(#clipPath25)" stroke="none" stroke-linecap="square" stroke-miterlimit="10" transform="matrix(1,0,0,1,306.2673,162)" x="0" xml:space="preserve" y="12"> </text>
    </g>
    <g color-interpolation="linearRGB" color-rendering="optimizeQuality" font-family="sans-serif" font-size="11" image-rendering="optimizeQuality" shape-rendering="crispEdges" text-rendering="geometricPrecision" transform="matrix(1,0,0,1,281.32349999999997,152)">
      <text clip-path="url(#clipPath26)" stroke="none" x="0" xml:space="preserve" y="12">:</text>
    </g>
    <g color-interpolation="linearRGB" color-rendering="optimizeQuality" font-family="sans-serif" font-size="11" image-rendering="optimizeQuality" shape-rendering="crispEdges" text-rendering="geometricPrecision" transform="matrix(1,0,0,1,286.3796,152)">
      <text clip-path="url(#clipPath27)" stroke="none" x="0" xml:space="preserve" y="12">BuildPartB ()</text>
    </g>
    <g color-interpolation="linearRGB" color-rendering="optimizeQuality" font-family="sans-serif" font-size="11" image-rendering="optimizeQuality" shape-rendering="crispEdges" text-rendering="geometricPrecision" transform="matrix(-1,0,0,-1,415,177)">
      <path clip-path="url(#clipPath28)" d="M12 -6 L0 0 L12 6 Z" stroke="none" />
      <path clip-path="url(#clipPath28)" d="M12 -6 L0 0 L12 6 Z" fill="none" />
    </g>
    <g color-interpolation="linearRGB" color-rendering="optimizeQuality" font-family="sans-serif" font-size="11" image-rendering="optimizeQuality" shape-rendering="crispEdges" stroke-linecap="butt" stroke-miterlimit="1" text-rendering="geometricPrecision" transform="matrix(1,0,0,1,-30,-10)">
      <path clip-path="url(#clipPath1)" d="M445 222 L240 222" fill="none" />
      <text clip-path="url(#clipPath29)" stroke="none" stroke-linecap="square" stroke-miterlimit="10" transform="matrix(1,0,0,1,305.9638,197)" x="0" xml:space="preserve" y="12"> </text>
    </g>
    <g color-interpolation="linearRGB" color-rendering="optimizeQuality" font-family="sans-serif" font-size="11" image-rendering="optimizeQuality" shape-rendering="crispEdges" text-rendering="geometricPrecision" transform="matrix(1,0,0,1,281.02,187)">
      <text clip-path="url(#clipPath30)" stroke="none" x="0" xml:space="preserve" y="12">:</text>
    </g>
    <g color-interpolation="linearRGB" color-rendering="optimizeQuality" font-family="sans-serif" font-size="11" image-rendering="optimizeQuality" shape-rendering="crispEdges" text-rendering="geometricPrecision" transform="matrix(1,0,0,1,286.0761,187)">
      <text clip-path="url(#clipPath31)" stroke="none" x="0" xml:space="preserve" y="12">BuildPartC ()</text>
    </g>
    <g color-interpolation="linearRGB" color-rendering="optimizeQuality" font-family="sans-serif" font-size="11" image-rendering="optimizeQuality" shape-rendering="crispEdges" text-rendering="geometricPrecision" transform="matrix(-1,0,0,-1,415,212)">
      <path clip-path="url(#clipPath32)" d="M12 -6 L0 0 L12 6 Z" stroke="none" />
      <path clip-path="url(#clipPath32)" d="M12 -6 L0 0 L12 6 Z" fill="none" />
    </g>
    <g color-interpolation="linearRGB" color-rendering="optimizeQuality" font-family="sans-serif" font-size="11" image-rendering="optimizeQuality" shape-rendering="crispEdges" stroke-linecap="butt" stroke-miterlimit="1" text-rendering="geometricPrecision" transform="matrix(1,0,0,1,-30,-10)">
      <path clip-path="url(#clipPath1)" d="M445 257 L90 257" fill="none" />
      <path clip-path="url(#clipPath33)" d="M12 -6 L0 0 L12 6 Z" stroke="none" stroke-linecap="square" stroke-miterlimit="10" transform="matrix(-1,2.8255175976710234E-14,-2.8255175976710234E-14,-1,445,257)" />
      <path clip-path="url(#clipPath33)" d="M12 -6 L0 0 L12 6 Z" fill="none" stroke-linecap="square" stroke-miterlimit="10" transform="matrix(-1,2.8255175976710234E-14,-2.8255175976710234E-14,-1,445,257)" />
    </g>
    <g color-interpolation="linearRGB" color-rendering="optimizeQuality" font-family="sans-serif" font-size="11" image-rendering="optimizeQuality" shape-rendering="crispEdges" text-rendering="geometricPrecision" transform="matrix(1,0,0,1,202.7981,222)">
      <text clip-path="url(#clipPath34)" stroke="none" x="0" xml:space="preserve" y="12"> </text>
    </g>
    <g color-interpolation="linearRGB" color-rendering="optimizeQuality" font-family="sans-serif" font-size="11" image-rendering="optimizeQuality" shape-rendering="crispEdges" text-rendering="geometricPrecision" transform="matrix(1,0,0,1,207.8543,222)">
      <text clip-path="url(#clipPath35)" stroke="none" x="0" xml:space="preserve" y="12">:</text>
    </g>
    <g color-interpolation="linearRGB" color-rendering="optimizeQuality" font-family="sans-serif" font-size="11" image-rendering="optimizeQuality" shape-rendering="crispEdges" text-rendering="geometricPrecision" transform="matrix(1,0,0,1,212.9104,222)">
      <text clip-path="url(#clipPath36)" stroke="none" x="0" xml:space="preserve" y="12">GetResult ()</text>
    </g>
  </g>
</svg>
