<?xml version="1.0" encoding="UTF-8"?>

<!DOCTYPE svg PUBLIC '-//W3C//DTD SVG 1.0//EN' 'http://www.w3.org/TR/2001/REC-SVG-20010904/DTD/svg10.dtd'>
<svg color-interpolation="auto" color-rendering="auto" fill="black" fill-opacity="1" font-family="&apos;Dialog&apos;" font-size="12" font-style="normal" font-weight="normal" image-rendering="auto" shape-rendering="auto" stroke="black" stroke-dasharray="none" stroke-dashoffset="0" stroke-linecap="square" stroke-linejoin="miter" stroke-miterlimit="10" stroke-opacity="1" stroke-width="1" text-rendering="auto" xmlns="http://www.w3.org/2000/svg" xmlns:xlink="http://www.w3.org/1999/xlink">
  <!--Generated by the Batik Graphics2D SVG Generator-->
  <defs id="genericDefs" />
  <g>
    <defs id="defs1">
      <clipPath clipPathUnits="userSpaceOnUse" id="clipPath1">
        <path d="M-140 -10 L-140 190 L390 190 L390 -10 Z" />
      </clipPath>
      <clipPath clipPathUnits="userSpaceOnUse" id="clipPath2">
        <path d="M-10 -120 L-10 80 L520 80 L520 -120 Z" />
      </clipPath>
      <clipPath clipPathUnits="userSpaceOnUse" id="clipPath3">
        <path d="M-250 -10 L-250 190 L280 190 L280 -10 Z" />
      </clipPath>
      <clipPath clipPathUnits="userSpaceOnUse" id="clipPath4">
        <path d="M-281.0534973144531 -13 L-281.0534973144531 187 L248.94650268554688 187 L248.94650268554688 -13 Z" />
      </clipPath>
      <clipPath clipPathUnits="userSpaceOnUse" id="clipPath5">
        <path d="M-251 -30 L-251 170 L279 170 L279 -30 Z" />
      </clipPath>
      <clipPath clipPathUnits="userSpaceOnUse" id="clipPath6">
        <path d="M-255 -35 L-255 165 L275 165 L275 -35 Z" />
      </clipPath>
      <clipPath clipPathUnits="userSpaceOnUse" id="clipPath7">
        <path d="M-261.4237976074219 -35 L-261.4237976074219 165 L268.5762023925781 165 L268.5762023925781 -35 Z" />
      </clipPath>
      <clipPath clipPathUnits="userSpaceOnUse" id="clipPath8">
        <path d="M-306.0575866699219 -35 L-306.0575866699219 165 L223.94239807128906 165 L223.94239807128906 -35 Z" />
      </clipPath>
      <clipPath clipPathUnits="userSpaceOnUse" id="clipPath9">
        <path d="M-309.720703125 -35 L-309.720703125 165 L220.279296875 165 L220.279296875 -35 Z" />
      </clipPath>
      <clipPath clipPathUnits="userSpaceOnUse" id="clipPath10">
        <path d="M-313.3837890625 -35 L-313.3837890625 165 L216.61619567871094 165 L216.61619567871094 -35 Z" />
      </clipPath>
      <clipPath clipPathUnits="userSpaceOnUse" id="clipPath11">
        <path d="M-316.4399108886719 -35 L-316.4399108886719 165 L213.5601043701172 165 L213.5601043701172 -35 Z" />
      </clipPath>
      <clipPath clipPathUnits="userSpaceOnUse" id="clipPath12">
        <path d="M-420 -130 L-420 70 L110 70 L110 -130 Z" />
      </clipPath>
      <clipPath clipPathUnits="userSpaceOnUse" id="clipPath13">
        <path d="M-449.2218933105469 -133 L-449.2218933105469 67 L80.7780990600586 67 L80.7780990600586 -133 Z" />
      </clipPath>
      <clipPath clipPathUnits="userSpaceOnUse" id="clipPath14">
        <path d="M-30 -10 L-30 190 L500 190 L500 -10 Z" />
      </clipPath>
      <clipPath clipPathUnits="userSpaceOnUse" id="clipPath15">
        <path d="M-58.910400390625 -13 L-58.910400390625 187 L471.089599609375 187 L471.089599609375 -13 Z" />
      </clipPath>
      <clipPath clipPathUnits="userSpaceOnUse" id="clipPath16">
        <path d="M-31 -30 L-31 170 L499 170 L499 -30 Z" />
      </clipPath>
      <clipPath clipPathUnits="userSpaceOnUse" id="clipPath17">
        <path d="M-35 -35 L-35 165 L495 165 L495 -35 Z" />
      </clipPath>
      <clipPath clipPathUnits="userSpaceOnUse" id="clipPath18">
        <path d="M-41.42380142211914 -35 L-41.42380142211914 165 L488.5762023925781 165 L488.5762023925781 -35 Z" />
      </clipPath>
      <clipPath clipPathUnits="userSpaceOnUse" id="clipPath19">
        <path d="M-88.49610137939453 -35 L-88.49610137939453 165 L441.50390625 165 L441.50390625 -35 Z" />
      </clipPath>
      <clipPath clipPathUnits="userSpaceOnUse" id="clipPath20">
        <path d="M-92.1592025756836 -35 L-92.1592025756836 165 L437.8407897949219 165 L437.8407897949219 -35 Z" />
      </clipPath>
      <clipPath clipPathUnits="userSpaceOnUse" id="clipPath21">
        <path d="M-95.82230377197266 -35 L-95.82230377197266 165 L434.1777038574219 165 L434.1777038574219 -35 Z" />
      </clipPath>
      <clipPath clipPathUnits="userSpaceOnUse" id="clipPath22">
        <path d="M-98.87840270996094 -35 L-98.87840270996094 165 L431.1216125488281 165 L431.1216125488281 -35 Z" />
      </clipPath>
      <clipPath clipPathUnits="userSpaceOnUse" id="clipPath23">
        <path d="M160 70 L160 270 L690 270 L690 70 Z" />
      </clipPath>
      <clipPath clipPathUnits="userSpaceOnUse" id="clipPath24">
        <path d="M-142.9904022216797 -12.5 L-142.9904022216797 187.5 L387.0096130371094 187.5 L387.0096130371094 -12.5 Z" />
      </clipPath>
      <clipPath clipPathUnits="userSpaceOnUse" id="clipPath25">
        <path d="M250 35 L250 -165 L-280 -165 L-280 35 Z" />
      </clipPath>
      <clipPath clipPathUnits="userSpaceOnUse" id="clipPath26">
        <path d="M-230.89190673828125 -42.5 L-230.89190673828125 157.5 L299.10809326171875 157.5 L299.10809326171875 -42.5 Z" />
      </clipPath>
      <clipPath clipPathUnits="userSpaceOnUse" id="clipPath27">
        <path d="M-130 -35 L-130 165 L400 165 L400 -35 Z" />
      </clipPath>
      <clipPath clipPathUnits="userSpaceOnUse" id="clipPath28">
        <path d="M20 40 L20 240 L550 240 L550 40 Z" />
      </clipPath>
      <clipPath clipPathUnits="userSpaceOnUse" id="clipPath29">
        <path d="M-250 -110 L-250 90 L280 90 L280 -110 Z" />
      </clipPath>
      <clipPath clipPathUnits="userSpaceOnUse" id="clipPath30">
        <path d="M-257.2138977050781 -113 L-257.2138977050781 87 L272.7861022949219 87 L272.7861022949219 -113 Z" />
      </clipPath>
      <clipPath clipPathUnits="userSpaceOnUse" id="clipPath31">
        <path d="M-251 -130 L-251 70 L279 70 L279 -130 Z" />
      </clipPath>
      <clipPath clipPathUnits="userSpaceOnUse" id="clipPath32">
        <path d="M-255 -135 L-255 65 L275 65 L275 -135 Z" />
      </clipPath>
      <clipPath clipPathUnits="userSpaceOnUse" id="clipPath33">
        <path d="M-261.4237976074219 -135 L-261.4237976074219 65 L268.5762023925781 65 L268.5762023925781 -135 Z" />
      </clipPath>
      <clipPath clipPathUnits="userSpaceOnUse" id="clipPath34">
        <path d="M-306.0575866699219 -135 L-306.0575866699219 65 L223.94239807128906 65 L223.94239807128906 -135 Z" />
      </clipPath>
      <clipPath clipPathUnits="userSpaceOnUse" id="clipPath35">
        <path d="M-309.720703125 -135 L-309.720703125 65 L220.279296875 65 L220.279296875 -135 Z" />
      </clipPath>
      <clipPath clipPathUnits="userSpaceOnUse" id="clipPath36">
        <path d="M-313.3837890625 -135 L-313.3837890625 65 L216.61619567871094 65 L216.61619567871094 -135 Z" />
      </clipPath>
      <clipPath clipPathUnits="userSpaceOnUse" id="clipPath37">
        <path d="M-316.4399108886719 -135 L-316.4399108886719 65 L213.5601043701172 65 L213.5601043701172 -135 Z" />
      </clipPath>
      <clipPath clipPathUnits="userSpaceOnUse" id="clipPath38">
        <path d="M-255 -151 L-255 49 L275 49 L275 -151 Z" />
      </clipPath>
      <clipPath clipPathUnits="userSpaceOnUse" id="clipPath39">
        <path d="M-261.4237976074219 -151 L-261.4237976074219 49 L268.5762023925781 49 L268.5762023925781 -151 Z" />
      </clipPath>
      <clipPath clipPathUnits="userSpaceOnUse" id="clipPath40">
        <path d="M-310.3330078125 -151 L-310.3330078125 49 L219.66700744628906 49 L219.66700744628906 -151 Z" />
      </clipPath>
      <clipPath clipPathUnits="userSpaceOnUse" id="clipPath41">
        <path d="M-313.99609375 -151 L-313.99609375 49 L216.00390625 49 L216.00390625 -151 Z" />
      </clipPath>
      <clipPath clipPathUnits="userSpaceOnUse" id="clipPath42">
        <path d="M-317.6592102050781 -151 L-317.6592102050781 49 L212.34080505371094 49 L212.34080505371094 -151 Z" />
      </clipPath>
      <clipPath clipPathUnits="userSpaceOnUse" id="clipPath43">
        <path d="M-320.7153015136719 -151 L-320.7153015136719 49 L209.28469848632812 49 L209.28469848632812 -151 Z" />
      </clipPath>
      <clipPath clipPathUnits="userSpaceOnUse" id="clipPath44">
        <path d="M-60 300 L140 300 L140 -230 L-60 -230 Z" />
      </clipPath>
      <clipPath clipPathUnits="userSpaceOnUse" id="clipPath45">
        <path d="M-352.95050048828125 -120.5 L-352.95050048828125 79.5 L177.04949951171875 79.5 L177.04949951171875 -120.5 Z" />
      </clipPath>
      <clipPath clipPathUnits="userSpaceOnUse" id="clipPath46">
        <path d="M-368.7981872558594 -120.5 L-368.7981872558594 79.5 L161.20179748535156 79.5 L161.20179748535156 -120.5 Z" />
      </clipPath>
      <clipPath clipPathUnits="userSpaceOnUse" id="clipPath47">
        <path d="M-404.2019958496094 -120.5 L-404.2019958496094 79.5 L125.7979965209961 79.5 L125.7979965209961 -120.5 Z" />
      </clipPath>
      <clipPath clipPathUnits="userSpaceOnUse" id="clipPath48">
        <path d="M420 140.5 L420 -59.5 L-110 -59.5 L-110 140.5 Z" />
      </clipPath>
    </defs>
    <g color-interpolation="linearRGB" color-rendering="optimizeQuality" fill="white" image-rendering="optimizeQuality" shape-rendering="crispEdges" stroke="white" text-rendering="geometricPrecision" transform="matrix(1,0,0,1,140,10)">
      <rect clip-path="url(#clipPath1)" height="200" stroke="none" width="530" x="-140" y="-10" />
    </g>
    <g color-interpolation="linearRGB" color-rendering="optimizeQuality" fill="rgb(255,255,128)" fill-opacity="0.800000011920929" image-rendering="optimizeQuality" shape-rendering="crispEdges" stroke="rgb(255,255,128)" stroke-opacity="0.800000011920929" text-rendering="geometricPrecision" transform="matrix(1,0,0,1,10,120)">
      <path clip-path="url(#clipPath2)" d="M0 0 L139.00289916992188 0 L149.00289916992188 10 L139.00289916992188 10 L139.00289916992188 0 L149.00289916992188 10 L149.00289916992188 70 L0 70 Z" stroke="none" />
    </g>
    <g color-interpolation="linearRGB" color-rendering="optimizeQuality" image-rendering="optimizeQuality" shape-rendering="crispEdges" stroke-linecap="butt" stroke-miterlimit="1" text-rendering="geometricPrecision" transform="matrix(1,0,0,1,10,120)">
      <path clip-path="url(#clipPath2)" d="M0 0 L139.00289916992188 0 L149.00289916992188 10 L139.00289916992188 10 L139.00289916992188 0 L149.00289916992188 10 L149.00289916992188 70 L0 70 Z" fill="none" />
    </g>
    <g color-interpolation="linearRGB" color-rendering="optimizeQuality" font-family="sans-serif" font-size="11" image-rendering="optimizeQuality" shape-rendering="crispEdges" text-rendering="geometricPrecision" transform="matrix(1,0,0,1,10,120)">
      <text clip-path="url(#clipPath2)" stroke="none" x="10" xml:space="preserve" y="22">for all objects in structure {</text>
      <text clip-path="url(#clipPath2)" stroke="none" x="10" xml:space="preserve" y="37">   builder-&gt;BuildPart()</text>
      <text clip-path="url(#clipPath2)" stroke="none" x="10" xml:space="preserve" y="52">}</text>
    </g>
    <g color-interpolation="linearRGB" color-rendering="optimizeQuality" fill="rgb(255,255,128)" fill-opacity="0.800000011920929" font-family="sans-serif" font-size="11" image-rendering="optimizeQuality" shape-rendering="crispEdges" stroke="rgb(255,255,128)" stroke-opacity="0.800000011920929" text-rendering="geometricPrecision" transform="matrix(1,0,0,1,250,10)">
      <path clip-path="url(#clipPath3)" d="M0.5 0.5 L99.5 0.5 L99.5 49.5 L0.5 49.5 Z" stroke="none" />
    </g>
    <g color-interpolation="linearRGB" color-rendering="optimizeQuality" font-family="sans-serif" font-size="11" image-rendering="optimizeQuality" shape-rendering="crispEdges" stroke-linecap="butt" stroke-miterlimit="1" text-rendering="geometricPrecision" transform="matrix(1,0,0,1,250,10)">
      <path clip-path="url(#clipPath3)" d="M0.5 0.5 L99.5 0.5 L99.5 49.5 L0.5 49.5 Z" fill="none" />
      <text clip-path="url(#clipPath4)" font-weight="bold" stroke="none" stroke-linecap="square" stroke-miterlimit="10" transform="matrix(1,0,0,1,31.0535,3)" x="0" xml:space="preserve" y="12">Builder</text>
    </g>
    <g color-interpolation="linearRGB" color-rendering="optimizeQuality" fill="rgb(255,255,128)" fill-opacity="0.800000011920929" font-family="sans-serif" font-size="11" font-weight="bold" image-rendering="optimizeQuality" shape-rendering="crispEdges" stroke="rgb(255,255,128)" stroke-opacity="0.800000011920929" text-rendering="geometricPrecision" transform="matrix(1,0,0,1,251,30)">
      <path clip-path="url(#clipPath5)" d="M0.5 0.5 L97.5 0.5 L97.5 0.5 L0.5 0.5 Z" stroke="none" />
    </g>
    <g color-interpolation="linearRGB" color-rendering="optimizeQuality" font-family="sans-serif" font-size="11" font-weight="bold" image-rendering="optimizeQuality" shape-rendering="crispEdges" stroke-linecap="butt" stroke-miterlimit="1" text-rendering="geometricPrecision" transform="matrix(1,0,0,1,251,30)">
      <path clip-path="url(#clipPath5)" d="M0.5 0.5 L97.5 0.5 L97.5 0.5 L0.5 0.5 Z" fill="none" />
    </g>
    <g color-interpolation="linearRGB" color-rendering="optimizeQuality" font-family="sans-serif" font-size="11" image-rendering="optimizeQuality" shape-rendering="crispEdges" text-rendering="geometricPrecision" transform="matrix(1,0,0,1,255,35)">
      <text clip-path="url(#clipPath6)" stroke="none" x="0" xml:space="preserve" y="12">+</text>
    </g>
    <g color-interpolation="linearRGB" color-rendering="optimizeQuality" font-family="sans-serif" font-size="11" image-rendering="optimizeQuality" shape-rendering="crispEdges" text-rendering="geometricPrecision" transform="matrix(1,0,0,1,261.4238,35)">
      <text clip-path="url(#clipPath7)" stroke="none" x="0" xml:space="preserve" y="12">BuildPart</text>
    </g>
    <g color-interpolation="linearRGB" color-rendering="optimizeQuality" font-family="sans-serif" font-size="11" image-rendering="optimizeQuality" shape-rendering="crispEdges" text-rendering="geometricPrecision" transform="matrix(1,0,0,1,306.0576,35)">
      <text clip-path="url(#clipPath8)" stroke="none" x="0" xml:space="preserve" y="12">(</text>
    </g>
    <g color-interpolation="linearRGB" color-rendering="optimizeQuality" font-family="sans-serif" font-size="11" image-rendering="optimizeQuality" shape-rendering="crispEdges" text-rendering="geometricPrecision" transform="matrix(1,0,0,1,309.7207,35)">
      <text clip-path="url(#clipPath9)" stroke="none" x="0" xml:space="preserve" y="12">)</text>
    </g>
    <g color-interpolation="linearRGB" color-rendering="optimizeQuality" font-family="sans-serif" font-size="11" image-rendering="optimizeQuality" shape-rendering="crispEdges" text-rendering="geometricPrecision" transform="matrix(1,0,0,1,313.3838,35)">
      <text clip-path="url(#clipPath10)" stroke="none" x="0" xml:space="preserve" y="12">:</text>
    </g>
    <g color-interpolation="linearRGB" color-rendering="optimizeQuality" font-family="sans-serif" font-size="11" image-rendering="optimizeQuality" shape-rendering="crispEdges" text-rendering="geometricPrecision" transform="matrix(1,0,0,1,316.4399,35)">
      <text clip-path="url(#clipPath11)" stroke="none" x="0" xml:space="preserve" y="12">void</text>
    </g>
    <g color-interpolation="linearRGB" color-rendering="optimizeQuality" fill="rgb(255,255,128)" fill-opacity="0.800000011920929" font-family="sans-serif" font-size="11" image-rendering="optimizeQuality" shape-rendering="crispEdges" stroke="rgb(255,255,128)" stroke-opacity="0.800000011920929" text-rendering="geometricPrecision" transform="matrix(1,0,0,1,420,130)">
      <path clip-path="url(#clipPath12)" d="M0.5 0.5 L99.5 0.5 L99.5 20.5 L0.5 20.5 Z" stroke="none" />
    </g>
    <g color-interpolation="linearRGB" color-rendering="optimizeQuality" font-family="sans-serif" font-size="11" image-rendering="optimizeQuality" shape-rendering="crispEdges" stroke-linecap="butt" stroke-miterlimit="1" text-rendering="geometricPrecision" transform="matrix(1,0,0,1,420,130)">
      <path clip-path="url(#clipPath12)" d="M0.5 0.5 L99.5 0.5 L99.5 20.5 L0.5 20.5 Z" fill="none" />
      <text clip-path="url(#clipPath13)" font-weight="bold" stroke="none" stroke-linecap="square" stroke-miterlimit="10" transform="matrix(1,0,0,1,29.2219,3)" x="0" xml:space="preserve" y="12">Product</text>
    </g>
    <g color-interpolation="linearRGB" color-rendering="optimizeQuality" fill="rgb(255,255,128)" fill-opacity="0.800000011920929" font-family="sans-serif" font-size="11" font-weight="bold" image-rendering="optimizeQuality" shape-rendering="crispEdges" stroke="rgb(255,255,128)" stroke-opacity="0.800000011920929" text-rendering="geometricPrecision" transform="matrix(1,0,0,1,30,10)">
      <path clip-path="url(#clipPath14)" d="M0.5 0.5 L99.5 0.5 L99.5 49.5 L0.5 49.5 Z" stroke="none" />
    </g>
    <g color-interpolation="linearRGB" color-rendering="optimizeQuality" font-family="sans-serif" font-size="11" font-weight="bold" image-rendering="optimizeQuality" shape-rendering="crispEdges" stroke-linecap="butt" stroke-miterlimit="1" text-rendering="geometricPrecision" transform="matrix(1,0,0,1,30,10)">
      <path clip-path="url(#clipPath14)" d="M0.5 0.5 L99.5 0.5 L99.5 49.5 L0.5 49.5 Z" fill="none" />
      <text clip-path="url(#clipPath15)" stroke="none" stroke-linecap="square" stroke-miterlimit="10" transform="matrix(1,0,0,1,28.9104,3)" x="0" xml:space="preserve" y="12">Director</text>
    </g>
    <g color-interpolation="linearRGB" color-rendering="optimizeQuality" fill="rgb(255,255,128)" fill-opacity="0.800000011920929" font-family="sans-serif" font-size="11" font-weight="bold" image-rendering="optimizeQuality" shape-rendering="crispEdges" stroke="rgb(255,255,128)" stroke-opacity="0.800000011920929" text-rendering="geometricPrecision" transform="matrix(1,0,0,1,31,30)">
      <path clip-path="url(#clipPath16)" d="M0.5 0.5 L97.5 0.5 L97.5 0.5 L0.5 0.5 Z" stroke="none" />
    </g>
    <g color-interpolation="linearRGB" color-rendering="optimizeQuality" font-family="sans-serif" font-size="11" font-weight="bold" image-rendering="optimizeQuality" shape-rendering="crispEdges" stroke-linecap="butt" stroke-miterlimit="1" text-rendering="geometricPrecision" transform="matrix(1,0,0,1,31,30)">
      <path clip-path="url(#clipPath16)" d="M0.5 0.5 L97.5 0.5 L97.5 0.5 L0.5 0.5 Z" fill="none" />
    </g>
    <g color-interpolation="linearRGB" color-rendering="optimizeQuality" font-family="sans-serif" font-size="11" image-rendering="optimizeQuality" shape-rendering="crispEdges" text-rendering="geometricPrecision" transform="matrix(1,0,0,1,35,35)">
      <text clip-path="url(#clipPath17)" stroke="none" x="0" xml:space="preserve" y="12">+</text>
    </g>
    <g color-interpolation="linearRGB" color-rendering="optimizeQuality" font-family="sans-serif" font-size="11" image-rendering="optimizeQuality" shape-rendering="crispEdges" text-rendering="geometricPrecision" transform="matrix(1,0,0,1,41.4238,35)">
      <text clip-path="url(#clipPath18)" stroke="none" x="0" xml:space="preserve" y="12">Construct</text>
    </g>
    <g color-interpolation="linearRGB" color-rendering="optimizeQuality" font-family="sans-serif" font-size="11" image-rendering="optimizeQuality" shape-rendering="crispEdges" text-rendering="geometricPrecision" transform="matrix(1,0,0,1,88.4961,35)">
      <text clip-path="url(#clipPath19)" stroke="none" x="0" xml:space="preserve" y="12">(</text>
    </g>
    <g color-interpolation="linearRGB" color-rendering="optimizeQuality" font-family="sans-serif" font-size="11" image-rendering="optimizeQuality" shape-rendering="crispEdges" text-rendering="geometricPrecision" transform="matrix(1,0,0,1,92.1592,35)">
      <text clip-path="url(#clipPath20)" stroke="none" x="0" xml:space="preserve" y="12">)</text>
    </g>
    <g color-interpolation="linearRGB" color-rendering="optimizeQuality" font-family="sans-serif" font-size="11" image-rendering="optimizeQuality" shape-rendering="crispEdges" text-rendering="geometricPrecision" transform="matrix(1,0,0,1,95.8223,35)">
      <text clip-path="url(#clipPath21)" stroke="none" x="0" xml:space="preserve" y="12">:</text>
    </g>
    <g color-interpolation="linearRGB" color-rendering="optimizeQuality" font-family="sans-serif" font-size="11" image-rendering="optimizeQuality" shape-rendering="crispEdges" text-rendering="geometricPrecision" transform="matrix(1,0,0,1,98.8784,35)">
      <text clip-path="url(#clipPath22)" stroke="none" x="0" xml:space="preserve" y="12">void</text>
    </g>
    <g color-interpolation="linearRGB" color-rendering="optimizeQuality" font-family="sans-serif" font-size="11" image-rendering="optimizeQuality" shape-rendering="crispEdges" stroke-linecap="butt" stroke-miterlimit="1" text-rendering="geometricPrecision" transform="matrix(1,0,0,1,-160,-70)">
      <path clip-path="url(#clipPath23)" d="M290 105 L410 105" fill="none" />
      <text clip-path="url(#clipPath24)" stroke="none" stroke-linecap="square" stroke-miterlimit="10" transform="matrix(1,0,0,1,302.9904,82.5)" x="0" xml:space="preserve" y="12">1</text>
    </g>
    <g color-interpolation="linearRGB" color-rendering="optimizeQuality" fill="white" font-family="sans-serif" font-size="11" image-rendering="optimizeQuality" shape-rendering="crispEdges" stroke="white" text-rendering="geometricPrecision" transform="matrix(-1,0,0,-1,250,35)">
      <path clip-path="url(#clipPath25)" d="M10 -5 L0 0 ZM10 5 L0 0 Z" stroke="none" />
      <path clip-path="url(#clipPath25)" d="M10 -5 L0 0 ZM10 5 L0 0 Z" fill="none" stroke="black" />
    </g>
    <g color-interpolation="linearRGB" color-rendering="optimizeQuality" font-family="sans-serif" font-size="11" image-rendering="optimizeQuality" shape-rendering="crispEdges" text-rendering="geometricPrecision" transform="matrix(1,0,0,1,230.8919,42.5)">
      <text clip-path="url(#clipPath26)" stroke="none" x="0" xml:space="preserve" y="12">1</text>
    </g>
    <g color-interpolation="linearRGB" color-rendering="optimizeQuality" font-family="sans-serif" font-size="11" image-rendering="optimizeQuality" shape-rendering="crispEdges" stroke-linecap="butt" stroke-miterlimit="1" text-rendering="geometricPrecision" transform="matrix(1,0,0,1,-160,-70)">
      <path clip-path="url(#clipPath23)" d="M290 105 L410 105" fill="none" />
    </g>
    <g color-interpolation="linearRGB" color-rendering="optimizeQuality" fill="white" font-family="sans-serif" font-size="11" image-rendering="optimizeQuality" shape-rendering="crispEdges" stroke="white" text-rendering="geometricPrecision" transform="matrix(1,0,0,1,130,35)">
      <path clip-path="url(#clipPath27)" d="M0 0 L10 -5 L20 0 L10 5 Z" stroke="none" />
      <path clip-path="url(#clipPath27)" d="M0 0 L10 -5 L20 0 L10 5 Z" fill="none" stroke="black" />
    </g>
    <g color-interpolation="linearRGB" color-rendering="optimizeQuality" font-family="sans-serif" font-size="11" image-rendering="optimizeQuality" shape-rendering="crispEdges" text-rendering="geometricPrecision" transform="matrix(1,0,0,1,142.9904,12.5)">
      <text clip-path="url(#clipPath24)" stroke="none" x="0" xml:space="preserve" y="12">1</text>
    </g>
    <g color-interpolation="linearRGB" color-rendering="optimizeQuality" font-family="sans-serif" font-size="11" image-rendering="optimizeQuality" shape-rendering="crispEdges" text-rendering="geometricPrecision" transform="matrix(1,0,0,1,230.8919,42.5)">
      <text clip-path="url(#clipPath26)" stroke="none" x="0" xml:space="preserve" y="12">1</text>
    </g>
    <g color-interpolation="linearRGB" color-rendering="optimizeQuality" font-family="sans-serif" font-size="11" image-rendering="optimizeQuality" shape-rendering="crispEdges" stroke-dasharray="5,5" stroke-linecap="butt" stroke-miterlimit="1" text-rendering="geometricPrecision" transform="matrix(1,0,0,1,-20,-40)">
      <path clip-path="url(#clipPath28)" d="M100 160 L100 100" fill="none" />
    </g>
    <g color-interpolation="linearRGB" color-rendering="optimizeQuality" fill="rgb(255,255,128)" fill-opacity="0.800000011920929" font-family="sans-serif" font-size="11" image-rendering="optimizeQuality" shape-rendering="crispEdges" stroke="rgb(255,255,128)" stroke-opacity="0.800000011920929" text-rendering="geometricPrecision" transform="matrix(1,0,0,1,250,110)">
      <path clip-path="url(#clipPath29)" d="M0.5 0.5 L99.5 0.5 L99.5 60.5 L0.5 60.5 Z" stroke="none" />
    </g>
    <g color-interpolation="linearRGB" color-rendering="optimizeQuality" font-family="sans-serif" font-size="11" image-rendering="optimizeQuality" shape-rendering="crispEdges" stroke-linecap="butt" stroke-miterlimit="1" text-rendering="geometricPrecision" transform="matrix(1,0,0,1,250,110)">
      <path clip-path="url(#clipPath29)" d="M0.5 0.5 L99.5 0.5 L99.5 60.5 L0.5 60.5 Z" fill="none" />
      <text clip-path="url(#clipPath30)" font-weight="bold" stroke="none" stroke-linecap="square" stroke-miterlimit="10" transform="matrix(1,0,0,1,7.2139,3)" x="0" xml:space="preserve" y="12">ConcreteBuilder</text>
    </g>
    <g color-interpolation="linearRGB" color-rendering="optimizeQuality" fill="rgb(255,255,128)" fill-opacity="0.800000011920929" font-family="sans-serif" font-size="11" font-weight="bold" image-rendering="optimizeQuality" shape-rendering="crispEdges" stroke="rgb(255,255,128)" stroke-opacity="0.800000011920929" text-rendering="geometricPrecision" transform="matrix(1,0,0,1,251,130)">
      <path clip-path="url(#clipPath31)" d="M0.5 0.5 L97.5 0.5 L97.5 0.5 L0.5 0.5 Z" stroke="none" />
    </g>
    <g color-interpolation="linearRGB" color-rendering="optimizeQuality" font-family="sans-serif" font-size="11" font-weight="bold" image-rendering="optimizeQuality" shape-rendering="crispEdges" stroke-linecap="butt" stroke-miterlimit="1" text-rendering="geometricPrecision" transform="matrix(1,0,0,1,251,130)">
      <path clip-path="url(#clipPath31)" d="M0.5 0.5 L97.5 0.5 L97.5 0.5 L0.5 0.5 Z" fill="none" />
    </g>
    <g color-interpolation="linearRGB" color-rendering="optimizeQuality" font-family="sans-serif" font-size="11" image-rendering="optimizeQuality" shape-rendering="crispEdges" text-rendering="geometricPrecision" transform="matrix(1,0,0,1,255,135)">
      <text clip-path="url(#clipPath32)" stroke="none" x="0" xml:space="preserve" y="12">+</text>
    </g>
    <g color-interpolation="linearRGB" color-rendering="optimizeQuality" font-family="sans-serif" font-size="11" image-rendering="optimizeQuality" shape-rendering="crispEdges" text-rendering="geometricPrecision" transform="matrix(1,0,0,1,261.4238,135)">
      <text clip-path="url(#clipPath33)" stroke="none" x="0" xml:space="preserve" y="12">BuildPart</text>
    </g>
    <g color-interpolation="linearRGB" color-rendering="optimizeQuality" font-family="sans-serif" font-size="11" image-rendering="optimizeQuality" shape-rendering="crispEdges" text-rendering="geometricPrecision" transform="matrix(1,0,0,1,306.0576,135)">
      <text clip-path="url(#clipPath34)" stroke="none" x="0" xml:space="preserve" y="12">(</text>
    </g>
    <g color-interpolation="linearRGB" color-rendering="optimizeQuality" font-family="sans-serif" font-size="11" image-rendering="optimizeQuality" shape-rendering="crispEdges" text-rendering="geometricPrecision" transform="matrix(1,0,0,1,309.7207,135)">
      <text clip-path="url(#clipPath35)" stroke="none" x="0" xml:space="preserve" y="12">)</text>
    </g>
    <g color-interpolation="linearRGB" color-rendering="optimizeQuality" font-family="sans-serif" font-size="11" image-rendering="optimizeQuality" shape-rendering="crispEdges" text-rendering="geometricPrecision" transform="matrix(1,0,0,1,313.3838,135)">
      <text clip-path="url(#clipPath36)" stroke="none" x="0" xml:space="preserve" y="12">:</text>
    </g>
    <g color-interpolation="linearRGB" color-rendering="optimizeQuality" font-family="sans-serif" font-size="11" image-rendering="optimizeQuality" shape-rendering="crispEdges" text-rendering="geometricPrecision" transform="matrix(1,0,0,1,316.4399,135)">
      <text clip-path="url(#clipPath37)" stroke="none" x="0" xml:space="preserve" y="12">void</text>
    </g>
    <g color-interpolation="linearRGB" color-rendering="optimizeQuality" font-family="sans-serif" font-size="11" image-rendering="optimizeQuality" shape-rendering="crispEdges" text-rendering="geometricPrecision" transform="matrix(1,0,0,1,255,151)">
      <text clip-path="url(#clipPath38)" stroke="none" x="0" xml:space="preserve" y="12">+</text>
    </g>
    <g color-interpolation="linearRGB" color-rendering="optimizeQuality" font-family="sans-serif" font-size="11" image-rendering="optimizeQuality" shape-rendering="crispEdges" text-rendering="geometricPrecision" transform="matrix(1,0,0,1,261.4238,151)">
      <text clip-path="url(#clipPath39)" stroke="none" x="0" xml:space="preserve" y="12">GetResult</text>
    </g>
    <g color-interpolation="linearRGB" color-rendering="optimizeQuality" font-family="sans-serif" font-size="11" image-rendering="optimizeQuality" shape-rendering="crispEdges" text-rendering="geometricPrecision" transform="matrix(1,0,0,1,310.33299999999997,151)">
      <text clip-path="url(#clipPath40)" stroke="none" x="0" xml:space="preserve" y="12">(</text>
    </g>
    <g color-interpolation="linearRGB" color-rendering="optimizeQuality" font-family="sans-serif" font-size="11" image-rendering="optimizeQuality" shape-rendering="crispEdges" text-rendering="geometricPrecision" transform="matrix(1,0,0,1,313.9961,151)">
      <text clip-path="url(#clipPath41)" stroke="none" x="0" xml:space="preserve" y="12">)</text>
    </g>
    <g color-interpolation="linearRGB" color-rendering="optimizeQuality" font-family="sans-serif" font-size="11" image-rendering="optimizeQuality" shape-rendering="crispEdges" text-rendering="geometricPrecision" transform="matrix(1,0,0,1,317.6592,151)">
      <text clip-path="url(#clipPath42)" stroke="none" x="0" xml:space="preserve" y="12">:</text>
    </g>
    <g color-interpolation="linearRGB" color-rendering="optimizeQuality" font-family="sans-serif" font-size="11" image-rendering="optimizeQuality" shape-rendering="crispEdges" text-rendering="geometricPrecision" transform="matrix(1,0,0,1,320.7153,151)">
      <text clip-path="url(#clipPath43)" stroke="none" x="0" xml:space="preserve" y="12">void</text>
    </g>
    <g color-interpolation="linearRGB" color-rendering="optimizeQuality" font-family="sans-serif" font-size="11" image-rendering="optimizeQuality" shape-rendering="crispEdges" stroke-linecap="butt" stroke-miterlimit="1" text-rendering="geometricPrecision" transform="matrix(1,0,0,1,-160,-70)">
      <path clip-path="url(#clipPath23)" d="M460 180 L460 130" fill="none" />
    </g>
    <g color-interpolation="linearRGB" color-rendering="optimizeQuality" fill="white" font-family="sans-serif" font-size="11" image-rendering="optimizeQuality" shape-rendering="crispEdges" stroke="white" text-rendering="geometricPrecision" transform="matrix(0,1,-1,0,300,60)">
      <path clip-path="url(#clipPath44)" d="M12 -6 L0 0 L12 6 Z" stroke="none" />
      <path clip-path="url(#clipPath44)" d="M12 -6 L0 0 L12 6 Z" fill="none" stroke="black" />
    </g>
    <g color-interpolation="linearRGB" color-rendering="optimizeQuality" font-family="sans-serif" font-size="11" image-rendering="optimizeQuality" shape-rendering="crispEdges" stroke-dasharray="5,10" stroke-linecap="butt" stroke-miterlimit="1" text-rendering="geometricPrecision" transform="matrix(1,0,0,1,-160,-70)">
      <path clip-path="url(#clipPath23)" d="M510 210.5 L580 210.5" fill="none" />
      <text clip-path="url(#clipPath45)" stroke="none" stroke-dasharray="none" stroke-linecap="square" stroke-miterlimit="10" transform="matrix(1,0,0,1,512.9505,190.5)" x="0" xml:space="preserve" y="12">&lt;&lt;</text>
    </g>
    <g color-interpolation="linearRGB" color-rendering="optimizeQuality" font-family="sans-serif" font-size="11" image-rendering="optimizeQuality" shape-rendering="crispEdges" text-rendering="geometricPrecision" transform="matrix(1,0,0,1,368.7982,120.5)">
      <text clip-path="url(#clipPath46)" stroke="none" x="0" xml:space="preserve" y="12">realize</text>
    </g>
    <g color-interpolation="linearRGB" color-rendering="optimizeQuality" font-family="sans-serif" font-size="11" image-rendering="optimizeQuality" shape-rendering="crispEdges" text-rendering="geometricPrecision" transform="matrix(1,0,0,1,404.20200000000006,120.5)">
      <text clip-path="url(#clipPath47)" stroke="none" x="0" xml:space="preserve" y="12">&gt;&gt;</text>
    </g>
    <g color-interpolation="linearRGB" color-rendering="optimizeQuality" fill="white" font-family="sans-serif" font-size="11" image-rendering="optimizeQuality" shape-rendering="crispEdges" stroke="white" text-rendering="geometricPrecision" transform="matrix(-1,0,0,-1,420,140.5)">
      <path clip-path="url(#clipPath48)" d="M12 -6 L0 0 L12 6 Z" stroke="none" />
      <path clip-path="url(#clipPath48)" d="M12 -6 L0 0 L12 6 Z" fill="none" stroke="black" />
    </g>
  </g>
</svg>
